<svg xmlns="http://www.w3.org/2000/svg" xmlns:xlink="http://www.w3.org/1999/xlink" width="2016" zoomAndPan="magnify" viewBox="0 0 1512 328.49999" height="438" preserveAspectRatio="xMidYMid meet" version="1.0"><defs><g/><clipPath id="e4dbeb3b3a"><path d="M 15.265625 14.796875 L 314.238281 14.796875 L 314.238281 313.769531 L 15.265625 313.769531 Z M 15.265625 14.796875 " clip-rule="nonzero"/></clipPath><clipPath id="918c65383f"><path d="M 164.753906 14.796875 C 82.191406 14.796875 15.265625 81.722656 15.265625 164.28125 C 15.265625 246.839844 82.191406 313.769531 164.753906 313.769531 C 247.3125 313.769531 314.238281 246.839844 314.238281 164.28125 C 314.238281 81.722656 247.3125 14.796875 164.753906 14.796875 Z M 164.753906 14.796875 " clip-rule="nonzero"/></clipPath><clipPath id="ba9a1032a1"><path d="M 0.265625 0.796875 L 299.238281 0.796875 L 299.238281 299.769531 L 0.265625 299.769531 Z M 0.265625 0.796875 " clip-rule="nonzero"/></clipPath><clipPath id="63b83a247b"><path d="M 149.753906 0.796875 C 67.191406 0.796875 0.265625 67.722656 0.265625 150.28125 C 0.265625 232.839844 67.191406 299.769531 149.753906 299.769531 C 232.3125 299.769531 299.238281 232.839844 299.238281 150.28125 C 299.238281 67.722656 232.3125 0.796875 149.753906 0.796875 Z M 149.753906 0.796875 " clip-rule="nonzero"/></clipPath><clipPath id="ac25bded50"><rect x="0" width="300" y="0" height="300"/></clipPath><clipPath id="23c739077f"><rect x="0" width="170" y="0" height="238"/></clipPath><clipPath id="78bb8ab3d0"><rect x="0" width="1050" y="0" height="154"/></clipPath></defs><g clip-path="url(#e4dbeb3b3a)"><g clip-path="url(#918c65383f)"><g transform="matrix(1, 0, 0, 1, 15, 14)"><g clip-path="url(#ac25bded50)"><g clip-path="url(#ba9a1032a1)"><g clip-path="url(#63b83a247b)"><path fill="#004aad" d="M 0.265625 0.796875 L 299.238281 0.796875 L 299.238281 299.769531 L 0.265625 299.769531 Z M 0.265625 0.796875 " fill-opacity="1" fill-rule="nonzero"/></g></g></g></g></g></g><g transform="matrix(1, 0, 0, 1, 80, 45)"><g clip-path="url(#23c739077f)"><g fill="#ffffff" fill-opacity="1"><g transform="translate(4.702037, 199.162626)"><g><path d="M 62.15625 5.78125 C 58.832031 5.78125 56.472656 5.8125 55.078125 5.875 C 53.691406 5.945312 52.46875 5.117188 51.40625 3.390625 C 50.46875 1.660156 49.734375 -0.128906 49.203125 -1.984375 C 48.671875 -3.847656 48.078125 -5.710938 47.421875 -7.578125 C 45.554688 -13.816406 43.660156 -20.054688 41.734375 -26.296875 C 39.804688 -32.535156 37.914062 -38.78125 36.0625 -45.03125 C 33.9375 -52.332031 31.507812 -59.535156 28.78125 -66.640625 C 26.0625 -73.742188 23.242188 -80.75 20.328125 -87.65625 C 18.203125 -92.570312 16.078125 -97.484375 13.953125 -102.390625 C 11.828125 -107.304688 9.4375 -112.09375 6.78125 -116.75 C 5.71875 -118.875 4.550781 -120.960938 3.28125 -123.015625 C 2.019531 -125.078125 0.726562 -127.101562 -0.59375 -129.09375 C -1 -129.757812 -1.363281 -130.359375 -1.6875 -130.890625 C -2.019531 -131.421875 -2.1875 -132.019531 -2.1875 -132.6875 C -2.1875 -134.144531 -1.59375 -135.269531 -0.40625 -136.0625 C 3.851562 -138.71875 8.503906 -140.742188 13.546875 -142.140625 C 18.597656 -143.535156 23.578125 -144.765625 28.484375 -145.828125 C 30.078125 -146.222656 32.535156 -146.785156 35.859375 -147.515625 C 39.179688 -148.253906 42.5 -148.890625 45.8125 -149.421875 C 49.132812 -149.953125 51.53125 -149.953125 53 -149.421875 C 54.457031 -148.890625 55.617188 -147.988281 56.484375 -146.71875 C 57.347656 -145.457031 58.046875 -144.164062 58.578125 -142.84375 C 60.429688 -139.125 61.921875 -135.238281 63.046875 -131.1875 C 64.179688 -127.132812 65.210938 -123.050781 66.140625 -118.9375 C 68.003906 -110.96875 69.695312 -102.960938 71.21875 -94.921875 C 72.75 -86.890625 73.976562 -78.757812 74.90625 -70.53125 C 75.300781 -66.9375 75.664062 -63.3125 76 -59.65625 C 76.332031 -56.007812 76.632812 -52.394531 76.90625 -48.8125 C 77.96875 -52.257812 79.0625 -55.742188 80.1875 -59.265625 C 81.3125 -62.785156 82.34375 -66.273438 83.28125 -69.734375 C 86.863281 -81.816406 90.445312 -93.832031 94.03125 -105.78125 C 97.613281 -117.738281 101.265625 -129.757812 104.984375 -141.84375 C 105.253906 -142.507812 105.519531 -143.238281 105.78125 -144.03125 C 106.050781 -144.832031 106.453125 -145.5 106.984375 -146.03125 C 108.578125 -147.351562 111.03125 -148.015625 114.34375 -148.015625 C 117.664062 -148.015625 121.117188 -147.75 124.703125 -147.21875 C 128.296875 -146.6875 131.085938 -146.222656 133.078125 -145.828125 C 137.460938 -145.296875 141.8125 -144.5 146.125 -143.4375 C 150.445312 -142.375 154.597656 -140.914062 158.578125 -139.0625 C 159.640625 -138.65625 160.535156 -137.953125 161.265625 -136.953125 C 161.992188 -135.960938 162.359375 -134.9375 162.359375 -133.875 C 162.359375 -132.8125 162.160156 -131.75 161.765625 -130.6875 C 161.367188 -129.625 160.972656 -128.5625 160.578125 -127.5 C 156.453125 -116.476562 151.929688 -105.519531 147.015625 -94.625 C 142.109375 -83.738281 137.066406 -72.984375 131.890625 -62.359375 C 126.972656 -52.398438 122.390625 -42.335938 118.140625 -32.171875 C 113.890625 -22.015625 109.375 -11.890625 104.59375 -1.796875 C 103.53125 0.328125 102.53125 1.851562 101.59375 2.78125 C 100.664062 3.71875 99.007812 4.253906 96.625 4.390625 C 91.3125 4.515625 85.53125 4.675781 79.28125 4.875 C 73.039062 5.082031 67.332031 5.382812 62.15625 5.78125 Z M 62.15625 5.78125 "/></g></g></g></g></g><path fill="#ffffff" d="M 155.023438 37.167969 C 125.164062 39.21875 95.882812 51.644531 73.078125 74.449219 C 22.960938 124.566406 22.964844 205.945312 73.082031 256.058594 C 123.195312 306.171875 204.574219 306.175781 254.6875 256.0625 C 277.492188 233.257812 289.921875 203.976562 291.964844 174.109375 L 283.234375 165.378906 C 283.207031 195.898438 271.558594 226.40625 248.292969 249.667969 C 201.707031 296.253906 126.058594 296.253906 79.472656 249.667969 C 32.882812 203.082031 32.882812 127.433594 79.472656 80.84375 C 102.734375 57.582031 133.242188 45.933594 163.757812 45.902344 Z M 155.023438 37.167969 " fill-opacity="1" fill-rule="evenodd"/><g transform="matrix(1, 0, 0, 1, 335, 78)"><g clip-path="url(#78bb8ab3d0)"><g fill="#004aad" fill-opacity="1"><g transform="translate(0.647303, 133.126867)"><g><path d="M 20.734375 -82.203125 C 20.421875 -86.140625 21.285156 -94.554688 23.328125 -107.453125 C 39.429688 -113.921875 55.597656 -117.3125 71.828125 -117.625 C 73.015625 -85.269531 74.597656 -61.007812 76.578125 -44.84375 C 84.578125 -56.59375 96.019531 -80.757812 110.90625 -117.34375 L 147.828125 -114.125 C 118.609375 -52.0625 98.648438 -11.601562 87.953125 7.25 C 70.734375 8.5 57.164062 8.5 47.25 7.25 C 41.132812 -28.789062 37.035156 -59.597656 34.953125 -85.171875 Z M 20.734375 -82.203125 "/></g></g></g><g fill="#004aad" fill-opacity="1"><g transform="translate(128.078989, 133.126867)"><g><path d="M 73.03125 -113.5 C 62.625 -70.957031 53.304688 -30.785156 45.078125 7.015625 C 33.046875 7.585938 19.394531 7.828125 4.125 7.734375 C 8.320312 -21.429688 16.535156 -61.457031 28.765625 -112.34375 C 38.523438 -114.875 53.28125 -115.257812 73.03125 -113.5 Z M 73.03125 -113.5 "/></g></g></g><g fill="#004aad" fill-opacity="1"><g transform="translate(194.19558, 133.126867)"><g><path d="M 73.03125 -113.5 C 62.625 -70.957031 53.304688 -30.785156 45.078125 7.015625 C 33.046875 7.585938 19.394531 7.828125 4.125 7.734375 C 8.320312 -21.429688 16.535156 -61.457031 28.765625 -112.34375 C 38.523438 -114.875 53.28125 -115.257812 73.03125 -113.5 Z M 73.03125 -113.5 "/></g></g></g><g fill="#004aad" fill-opacity="1"><g transform="translate(260.312171, 133.126867)"><g><path d="M 18.53125 -78.828125 C 19.582031 -87.921875 21.34375 -97.957031 23.8125 -108.9375 C 45.613281 -115.59375 64.5 -117.960938 80.46875 -116.046875 C 77.582031 -109.773438 73.472656 -98.5625 68.140625 -82.40625 C 62.816406 -66.257812 60.6875 -53.769531 61.75 -44.9375 C 63.019531 -39.113281 66.140625 -35.976562 71.109375 -35.53125 C 77.316406 -35.65625 81.957031 -38.742188 85.03125 -44.796875 C 92.195312 -61.472656 97.65625 -85.253906 101.40625 -116.140625 L 137.265625 -113.828125 C 135.765625 -91.296875 132.195312 -70.429688 126.5625 -51.234375 C 117.144531 -20.722656 100.40625 -1.273438 76.34375 7.109375 C 65.425781 10.398438 54.703125 10.765625 44.171875 8.203125 C 27.140625 1.898438 19.601562 -15.988281 21.5625 -45.46875 C 22.039062 -53.28125 25.097656 -64.210938 30.734375 -78.265625 Z M 18.53125 -78.828125 "/></g></g></g><g fill="#004aad" fill-opacity="1"><g transform="translate(382.174122, 133.126867)"><g/></g></g><g fill="#004aad" fill-opacity="1"><g transform="translate(406.565719, 133.126867)"><g><path d="M 6 6.34375 C 10.476562 -2.6875 15.203125 -13.125 20.171875 -24.96875 C 26.722656 -19.96875 37.554688 -19.164062 52.671875 -22.5625 C 60.671875 -25.03125 64.59375 -28.789062 64.4375 -33.84375 C 64.46875 -37.976562 60.351562 -39.113281 52.09375 -37.25 C 40.0625 -36.613281 31.15625 -39.03125 25.375 -44.5 C 19.59375 -49.976562 16.5625 -55.375 16.28125 -60.6875 C 14.832031 -76.113281 19.34375 -89.75 29.8125 -101.59375 C 49.53125 -121.019531 74.144531 -125.660156 103.65625 -115.515625 L 87.328125 -84.359375 C 65.410156 -88.066406 54.097656 -85.203125 53.390625 -75.765625 C 53.484375 -71.210938 56.363281 -69.132812 62.03125 -69.53125 C 67.695312 -69.9375 74.296875 -69.394531 81.828125 -67.90625 C 89.367188 -66.425781 94.566406 -63.046875 97.421875 -57.765625 C 101.003906 -47.804688 101.453125 -38.710938 98.765625 -30.484375 C 91.335938 -9.773438 75.410156 3.535156 50.984375 9.453125 C 33.410156 13.003906 18.414062 11.96875 6 6.34375 Z M 6 6.34375 "/></g></g></g><g fill="#004aad" fill-opacity="1"><g transform="translate(497.890111, 133.126867)"><g><path d="M 130.96875 -117.25 C 128.125 -102.195312 124.15625 -88.925781 119.0625 -77.4375 C 111.769531 -78.238281 101.082031 -78.460938 87 -78.109375 L 68.75 12.859375 C 64.59375 14.523438 52.554688 12.207031 32.640625 5.90625 L 51.65625 -78.0625 C 38.5 -77.96875 27.9375 -77.664062 19.96875 -77.15625 C 20.613281 -89.738281 22.296875 -101.867188 25.015625 -113.546875 C 60.929688 -116.328125 96.25 -117.5625 130.96875 -117.25 Z M 130.96875 -117.25 "/></g></g></g><g fill="#004aad" fill-opacity="1"><g transform="translate(608.276525, 133.126867)"><g><path d="M 18.53125 -78.828125 C 19.582031 -87.921875 21.34375 -97.957031 23.8125 -108.9375 C 45.613281 -115.59375 64.5 -117.960938 80.46875 -116.046875 C 77.582031 -109.773438 73.472656 -98.5625 68.140625 -82.40625 C 62.816406 -66.257812 60.6875 -53.769531 61.75 -44.9375 C 63.019531 -39.113281 66.140625 -35.976562 71.109375 -35.53125 C 77.316406 -35.65625 81.957031 -38.742188 85.03125 -44.796875 C 92.195312 -61.472656 97.65625 -85.253906 101.40625 -116.140625 L 137.265625 -113.828125 C 135.765625 -91.296875 132.195312 -70.429688 126.5625 -51.234375 C 117.144531 -20.722656 100.40625 -1.273438 76.34375 7.109375 C 65.425781 10.398438 54.703125 10.765625 44.171875 8.203125 C 27.140625 1.898438 19.601562 -15.988281 21.5625 -45.46875 C 22.039062 -53.28125 25.097656 -64.210938 30.734375 -78.265625 Z M 18.53125 -78.828125 "/></g></g></g><g fill="#004aad" fill-opacity="1"><g transform="translate(730.138452, 133.126867)"><g><path d="M 21.796875 -100.203125 C 38.828125 -111.335938 58.207031 -116.796875 79.9375 -116.578125 C 96.257812 -116.734375 109.09375 -111.707031 118.4375 -101.5 C 127.789062 -91.289062 130.335938 -74.882812 126.078125 -52.28125 C 122.296875 -37.300781 114.71875 -24.519531 103.34375 -13.9375 C 91.96875 -3.363281 76.925781 2.96875 58.21875 5.0625 C 39.507812 7.15625 25.945312 7.132812 17.53125 5 C 20.3125 -11.582031 25.847656 -39.335938 34.140625 -78.265625 L 19.109375 -71.640625 C 18.785156 -76.503906 19.679688 -86.023438 21.796875 -100.203125 Z M 55.125 -27.84375 C 66.226562 -28.132812 75.253906 -30.648438 82.203125 -35.390625 C 89.078125 -40.222656 92.929688 -47.550781 93.765625 -57.375 C 95.234375 -77.632812 85.820312 -86.097656 65.53125 -82.765625 C 62.5625 -65.710938 59.09375 -47.40625 55.125 -27.84375 Z M 55.125 -27.84375 "/></g></g></g><g fill="#004aad" fill-opacity="1"><g transform="translate(848.927422, 133.126867)"><g><path d="M 73.03125 -113.5 C 62.625 -70.957031 53.304688 -30.785156 45.078125 7.015625 C 33.046875 7.585938 19.394531 7.828125 4.125 7.734375 C 8.320312 -21.429688 16.535156 -61.457031 28.765625 -112.34375 C 38.523438 -114.875 53.28125 -115.257812 73.03125 -113.5 Z M 73.03125 -113.5 "/></g></g></g><g fill="#004aad" fill-opacity="1"><g transform="translate(915.044025, 133.126867)"><g><path d="M 119.734375 -104.765625 C 126.910156 -97.785156 131.039062 -88.210938 132.125 -76.046875 C 132.507812 -68.617188 131.820312 -61.242188 130.0625 -53.921875 C 116.9375 -10.578125 90.210938 10.53125 49.890625 9.40625 C 33.273438 9.34375 21.140625 2.285156 13.484375 -11.765625 C 10.128906 -20.085938 9.023438 -29.191406 10.171875 -39.078125 C 11.515625 -49.804688 15.101562 -60.753906 20.9375 -71.921875 C 27.914062 -84.054688 35.820312 -93.4375 44.65625 -100.0625 C 72.40625 -121.25 97.429688 -122.816406 119.734375 -104.765625 Z M 48.34375 -43.109375 C 49.34375 -34.566406 54.5 -30.195312 63.8125 -30 C 71.71875 -29.550781 78.726562 -32.097656 84.84375 -37.640625 C 91.8125 -44.804688 94.578125 -52.023438 93.140625 -59.296875 C 91.054688 -68.421875 85.875 -72.882812 77.59375 -72.6875 C 67.570312 -71.851562 59.3125 -66.71875 52.8125 -57.28125 C 49.675781 -52.320312 48.1875 -47.597656 48.34375 -43.109375 Z M 48.34375 -43.109375 "/></g></g></g></g></g></svg>