<svg xmlns="http://www.w3.org/2000/svg" xmlns:xlink="http://www.w3.org/1999/xlink" width="1711" zoomAndPan="magnify" viewBox="0 0 1283.25 264.749989" height="353" preserveAspectRatio="xMidYMid meet" version="1.0"><defs><g/><clipPath id="fe4bf2cfb4"><path d="M 0.230469 0 L 1218 0 L 1218 264.5 L 0.230469 264.5 Z M 0.230469 0 " clip-rule="nonzero"/></clipPath><clipPath id="49aa48e6f0"><path d="M 10.875 19.457031 L 236.3125 19.457031 L 236.3125 244.894531 L 10.875 244.894531 Z M 10.875 19.457031 " clip-rule="nonzero"/></clipPath><clipPath id="cfc9d1c618"><path d="M 123.59375 19.457031 C 61.339844 19.457031 10.875 69.921875 10.875 132.175781 C 10.875 194.425781 61.339844 244.894531 123.59375 244.894531 C 185.847656 244.894531 236.3125 194.425781 236.3125 132.175781 C 236.3125 69.921875 185.847656 19.457031 123.59375 19.457031 Z M 123.59375 19.457031 " clip-rule="nonzero"/></clipPath><clipPath id="5b07072767"><path d="M 0.875 0.457031 L 226.3125 0.457031 L 226.3125 225.894531 L 0.875 225.894531 Z M 0.875 0.457031 " clip-rule="nonzero"/></clipPath><clipPath id="4c3ee0f707"><path d="M 113.59375 0.457031 C 51.339844 0.457031 0.875 50.921875 0.875 113.175781 C 0.875 175.425781 51.339844 225.894531 113.59375 225.894531 C 175.847656 225.894531 226.3125 175.425781 226.3125 113.175781 C 226.3125 50.921875 175.847656 0.457031 113.59375 0.457031 Z M 113.59375 0.457031 " clip-rule="nonzero"/></clipPath><clipPath id="b5e5bda46d"><rect x="0" width="227" y="0" height="226"/></clipPath><clipPath id="d9bf309e60"><rect x="0" width="128" y="0" height="180"/></clipPath><clipPath id="3188bb7ed8"><path d="M 261 36 L 1217.800781 36 L 1217.800781 228 L 261 228 Z M 261 36 " clip-rule="nonzero"/></clipPath><clipPath id="92618fa6bc"><rect x="0" width="957" y="0" height="192"/></clipPath><clipPath id="edfc9a6ee3"><rect x="0" width="1218" y="0" height="265"/></clipPath></defs><g clip-path="url(#fe4bf2cfb4)"><g transform="matrix(1, 0, 0, 1, 0.000000000000000056, 0)"><g clip-path="url(#edfc9a6ee3)"><g clip-path="url(#49aa48e6f0)"><g clip-path="url(#cfc9d1c618)"><g transform="matrix(1, 0, 0, 1, 10, 19)"><g clip-path="url(#b5e5bda46d)"><g clip-path="url(#5b07072767)"><g clip-path="url(#4c3ee0f707)"><path fill="#004aad" d="M 0.875 0.457031 L 226.3125 0.457031 L 226.3125 225.894531 L 0.875 225.894531 Z M 0.875 0.457031 " fill-opacity="1" fill-rule="nonzero"/></g></g></g></g></g></g><g transform="matrix(1, 0, 0, 1, 60, 42)"><g clip-path="url(#d9bf309e60)"><g fill="#ffffff" fill-opacity="1"><g transform="translate(3.232974, 150.407697)"><g><path d="M 46.875 4.359375 C 44.363281 4.359375 42.582031 4.378906 41.53125 4.421875 C 40.476562 4.472656 39.550781 3.847656 38.75 2.546875 C 38.050781 1.242188 37.5 -0.101562 37.09375 -1.5 C 36.695312 -2.90625 36.25 -4.304688 35.75 -5.703125 C 34.351562 -10.410156 32.925781 -15.117188 31.46875 -19.828125 C 30.019531 -24.535156 28.59375 -29.242188 27.1875 -33.953125 C 25.582031 -39.460938 23.753906 -44.894531 21.703125 -50.25 C 19.648438 -55.601562 17.523438 -60.882812 15.328125 -66.09375 C 13.722656 -69.800781 12.117188 -73.503906 10.515625 -77.203125 C 8.910156 -80.910156 7.109375 -84.519531 5.109375 -88.03125 C 4.304688 -89.632812 3.425781 -91.210938 2.46875 -92.765625 C 1.519531 -94.316406 0.546875 -95.84375 -0.453125 -97.34375 C -0.753906 -97.84375 -1.03125 -98.289062 -1.28125 -98.6875 C -1.53125 -99.09375 -1.65625 -99.546875 -1.65625 -100.046875 C -1.65625 -101.148438 -1.203125 -102 -0.296875 -102.59375 C 2.898438 -104.601562 6.398438 -106.132812 10.203125 -107.1875 C 14.015625 -108.238281 17.773438 -109.160156 21.484375 -109.953125 C 22.679688 -110.253906 24.53125 -110.679688 27.03125 -111.234375 C 29.539062 -111.785156 32.046875 -112.257812 34.546875 -112.65625 C 37.054688 -113.0625 38.859375 -113.0625 39.953125 -112.65625 C 41.054688 -112.257812 41.929688 -111.582031 42.578125 -110.625 C 43.234375 -109.675781 43.765625 -108.703125 44.171875 -107.703125 C 45.566406 -104.898438 46.691406 -101.972656 47.546875 -98.921875 C 48.398438 -95.867188 49.175781 -92.789062 49.875 -89.6875 C 51.269531 -83.675781 52.546875 -77.640625 53.703125 -71.578125 C 54.859375 -65.515625 55.785156 -59.378906 56.484375 -53.171875 C 56.785156 -50.472656 57.0625 -47.742188 57.3125 -44.984375 C 57.5625 -42.234375 57.785156 -39.503906 57.984375 -36.796875 C 58.785156 -39.398438 59.609375 -42.03125 60.453125 -44.6875 C 61.304688 -47.34375 62.085938 -49.972656 62.796875 -52.578125 C 65.492188 -61.691406 68.191406 -70.753906 70.890625 -79.765625 C 73.597656 -88.773438 76.359375 -97.835938 79.171875 -106.953125 C 79.367188 -107.453125 79.566406 -108.003906 79.765625 -108.609375 C 79.960938 -109.210938 80.265625 -109.710938 80.671875 -110.109375 C 81.867188 -111.109375 83.71875 -111.609375 86.21875 -111.609375 C 88.726562 -111.609375 91.332031 -111.40625 94.03125 -111 C 96.738281 -110.601562 98.84375 -110.253906 100.34375 -109.953125 C 103.644531 -109.554688 106.921875 -108.957031 110.171875 -108.15625 C 113.429688 -107.351562 116.566406 -106.253906 119.578125 -104.859375 C 120.378906 -104.554688 121.050781 -104.03125 121.59375 -103.28125 C 122.144531 -102.53125 122.421875 -101.753906 122.421875 -100.953125 C 122.421875 -100.148438 122.269531 -99.347656 121.96875 -98.546875 C 121.675781 -97.742188 121.378906 -96.941406 121.078125 -96.140625 C 117.972656 -87.828125 114.566406 -79.5625 110.859375 -71.34375 C 107.148438 -63.132812 103.34375 -55.023438 99.4375 -47.015625 C 95.738281 -39.503906 92.285156 -31.914062 89.078125 -24.25 C 85.867188 -16.59375 82.460938 -8.960938 78.859375 -1.359375 C 78.054688 0.242188 77.304688 1.394531 76.609375 2.09375 C 75.910156 2.800781 74.660156 3.207031 72.859375 3.3125 C 68.847656 3.40625 64.488281 3.523438 59.78125 3.671875 C 55.082031 3.828125 50.78125 4.054688 46.875 4.359375 Z M 46.875 4.359375 "/></g></g></g></g></g><path fill="#ffffff" d="M 116.257812 36.324219 C 93.742188 37.871094 71.664062 47.242188 54.46875 64.4375 C 16.679688 102.226562 16.683594 163.589844 54.46875 201.378906 C 92.257812 239.164062 153.621094 239.167969 191.410156 201.378906 C 208.605469 184.183594 217.976562 162.105469 219.515625 139.585938 L 212.933594 133 C 212.914062 156.015625 204.128906 179.019531 186.585938 196.558594 C 151.457031 231.6875 94.417969 231.6875 59.289062 196.558594 C 24.160156 161.429688 24.160156 104.390625 59.289062 69.257812 C 76.828125 51.71875 99.832031 42.933594 122.84375 42.914062 Z M 116.257812 36.324219 " fill-opacity="1" fill-rule="evenodd"/><g clip-path="url(#3188bb7ed8)"><g transform="matrix(1, 0, 0, 1, 261, 36)"><g clip-path="url(#92618fa6bc)"><g fill="#004aad" fill-opacity="1"><g transform="translate(4.27654, 160.610362)"><g><path d="M 50.1875 4.671875 C 47.5 4.671875 45.59375 4.695312 44.46875 4.75 C 43.34375 4.800781 42.351562 4.128906 41.5 2.734375 C 40.75 1.335938 40.15625 -0.109375 39.71875 -1.609375 C 39.289062 -3.109375 38.8125 -4.609375 38.28125 -6.109375 C 36.78125 -11.148438 35.25 -16.191406 33.6875 -21.234375 C 32.132812 -26.273438 30.609375 -31.3125 29.109375 -36.34375 C 27.398438 -42.25 25.441406 -48.066406 23.234375 -53.796875 C 21.035156 -59.535156 18.757812 -65.191406 16.40625 -70.765625 C 14.6875 -74.734375 12.96875 -78.703125 11.25 -82.671875 C 9.539062 -86.640625 7.613281 -90.5 5.46875 -94.25 C 4.613281 -95.96875 3.675781 -97.65625 2.65625 -99.3125 C 1.632812 -100.976562 0.585938 -102.617188 -0.484375 -104.234375 C -0.804688 -104.765625 -1.097656 -105.242188 -1.359375 -105.671875 C -1.628906 -106.097656 -1.765625 -106.582031 -1.765625 -107.125 C -1.765625 -108.300781 -1.285156 -109.210938 -0.328125 -109.859375 C 3.109375 -112.003906 6.863281 -113.640625 10.9375 -114.765625 C 15.007812 -115.890625 19.03125 -116.878906 23 -117.734375 C 24.289062 -118.054688 26.273438 -118.507812 28.953125 -119.09375 C 31.628906 -119.6875 34.304688 -120.195312 36.984375 -120.625 C 39.671875 -121.0625 41.601562 -121.066406 42.78125 -120.640625 C 43.957031 -120.203125 44.894531 -119.472656 45.59375 -118.453125 C 46.289062 -117.441406 46.851562 -116.398438 47.28125 -115.328125 C 48.789062 -112.328125 50 -109.191406 50.90625 -105.921875 C 51.820312 -102.648438 52.65625 -99.351562 53.40625 -96.03125 C 54.90625 -89.59375 56.269531 -83.128906 57.5 -76.640625 C 58.726562 -70.148438 59.722656 -63.582031 60.484375 -56.9375 C 60.796875 -54.039062 61.085938 -51.117188 61.359375 -48.171875 C 61.628906 -45.222656 61.867188 -42.300781 62.078125 -39.40625 C 62.941406 -42.195312 63.828125 -45.007812 64.734375 -47.84375 C 65.648438 -50.6875 66.484375 -53.503906 67.234375 -56.296875 C 70.128906 -66.054688 73.023438 -75.757812 75.921875 -85.40625 C 78.816406 -95.0625 81.765625 -104.765625 84.765625 -114.515625 C 84.984375 -115.054688 85.195312 -115.644531 85.40625 -116.28125 C 85.625 -116.925781 85.945312 -117.46875 86.375 -117.90625 C 87.65625 -118.96875 89.632812 -119.5 92.3125 -119.5 C 95 -119.5 97.789062 -119.285156 100.6875 -118.859375 C 103.582031 -118.429688 105.832031 -118.054688 107.4375 -117.734375 C 110.976562 -117.304688 114.488281 -116.660156 117.96875 -115.796875 C 121.457031 -114.941406 124.8125 -113.765625 128.03125 -112.265625 C 128.882812 -111.941406 129.609375 -111.378906 130.203125 -110.578125 C 130.796875 -109.773438 131.09375 -108.945312 131.09375 -108.09375 C 131.09375 -107.226562 130.929688 -106.367188 130.609375 -105.515625 C 130.285156 -104.660156 129.960938 -103.800781 129.640625 -102.9375 C 126.316406 -94.039062 122.671875 -85.195312 118.703125 -76.40625 C 114.734375 -67.613281 110.660156 -58.925781 106.484375 -50.34375 C 102.515625 -42.300781 98.8125 -34.175781 95.375 -25.96875 C 91.945312 -17.769531 88.300781 -9.597656 84.4375 -1.453125 C 83.582031 0.265625 82.78125 1.5 82.03125 2.25 C 81.28125 3 79.941406 3.425781 78.015625 3.53125 C 73.722656 3.644531 69.054688 3.78125 64.015625 3.9375 C 58.972656 4.101562 54.363281 4.347656 50.1875 4.671875 Z M 50.1875 4.671875 "/></g></g></g><g fill="#004aad" fill-opacity="1"><g transform="translate(134.071601, 160.610362)"><g><path d="M 47.28125 1.609375 C 45.457031 1.710938 43.335938 1.765625 40.921875 1.765625 C 38.515625 1.765625 36.398438 1.710938 34.578125 1.609375 C 30.609375 1.503906 26.613281 1.394531 22.59375 1.28125 C 18.570312 1.175781 14.523438 1.070312 10.453125 0.96875 C 9.484375 0.851562 8.539062 0.796875 7.625 0.796875 C 6.71875 0.796875 5.785156 0.742188 4.828125 0.640625 C 3.328125 0.316406 2.441406 -0.507812 2.171875 -1.84375 C 1.898438 -3.1875 1.953125 -4.742188 2.328125 -6.515625 C 2.703125 -8.285156 3.050781 -9.921875 3.375 -11.421875 C 4.875 -18.285156 5.945312 -25.679688 6.59375 -33.609375 C 7.238281 -41.546875 7.5625 -49.613281 7.5625 -57.8125 C 7.5625 -66.019531 7.316406 -73.847656 6.828125 -81.296875 C 6.347656 -88.753906 5.757812 -95.40625 5.0625 -101.25 C 4.363281 -107.09375 3.640625 -111.675781 2.890625 -115 C 2.359375 -117.570312 2.28125 -119.34375 2.65625 -120.3125 C 3.03125 -121.28125 3.78125 -121.867188 4.90625 -122.078125 C 6.03125 -122.296875 7.394531 -122.457031 9 -122.5625 C 16.082031 -123.101562 23.375 -123.585938 30.875 -124.015625 C 38.382812 -124.441406 45.835938 -124.601562 53.234375 -124.5 C 55.703125 -124.382812 57.125 -123.898438 57.5 -123.046875 C 57.875 -122.191406 57.578125 -120.367188 56.609375 -117.578125 C 54.035156 -110.390625 52.050781 -102.5625 50.65625 -94.09375 C 49.269531 -85.625 48.359375 -77.019531 47.921875 -68.28125 C 47.492188 -59.539062 47.359375 -51.117188 47.515625 -43.015625 C 47.679688 -34.921875 48.0625 -27.578125 48.65625 -20.984375 C 49.25 -14.390625 49.921875 -9.003906 50.671875 -4.828125 C 50.984375 -3.210938 50.953125 -1.757812 50.578125 -0.46875 C 50.203125 0.8125 49.101562 1.503906 47.28125 1.609375 Z M 47.28125 1.609375 "/></g></g></g><g fill="#004aad" fill-opacity="1"><g transform="translate(191.168558, 160.610362)"><g><path d="M 47.28125 1.609375 C 45.457031 1.710938 43.335938 1.765625 40.921875 1.765625 C 38.515625 1.765625 36.398438 1.710938 34.578125 1.609375 C 30.609375 1.503906 26.613281 1.394531 22.59375 1.28125 C 18.570312 1.175781 14.523438 1.070312 10.453125 0.96875 C 9.484375 0.851562 8.539062 0.796875 7.625 0.796875 C 6.71875 0.796875 5.785156 0.742188 4.828125 0.640625 C 3.328125 0.316406 2.441406 -0.507812 2.171875 -1.84375 C 1.898438 -3.1875 1.953125 -4.742188 2.328125 -6.515625 C 2.703125 -8.285156 3.050781 -9.921875 3.375 -11.421875 C 4.875 -18.285156 5.945312 -25.679688 6.59375 -33.609375 C 7.238281 -41.546875 7.5625 -49.613281 7.5625 -57.8125 C 7.5625 -66.019531 7.316406 -73.847656 6.828125 -81.296875 C 6.347656 -88.753906 5.757812 -95.40625 5.0625 -101.25 C 4.363281 -107.09375 3.640625 -111.675781 2.890625 -115 C 2.359375 -117.570312 2.28125 -119.34375 2.65625 -120.3125 C 3.03125 -121.28125 3.78125 -121.867188 4.90625 -122.078125 C 6.03125 -122.296875 7.394531 -122.457031 9 -122.5625 C 16.082031 -123.101562 23.375 -123.585938 30.875 -124.015625 C 38.382812 -124.441406 45.835938 -124.601562 53.234375 -124.5 C 55.703125 -124.382812 57.125 -123.898438 57.5 -123.046875 C 57.875 -122.191406 57.578125 -120.367188 56.609375 -117.578125 C 54.035156 -110.390625 52.050781 -102.5625 50.65625 -94.09375 C 49.269531 -85.625 48.359375 -77.019531 47.921875 -68.28125 C 47.492188 -59.539062 47.359375 -51.117188 47.515625 -43.015625 C 47.679688 -34.921875 48.0625 -27.578125 48.65625 -20.984375 C 49.25 -14.390625 49.921875 -9.003906 50.671875 -4.828125 C 50.984375 -3.210938 50.953125 -1.757812 50.578125 -0.46875 C 50.203125 0.8125 49.101562 1.503906 47.28125 1.609375 Z M 47.28125 1.609375 "/></g></g></g><g fill="#004aad" fill-opacity="1"><g transform="translate(245.692019, 160.610362)"><g><path d="M 102.9375 -36.515625 C 100.789062 -27.929688 97.171875 -20.582031 92.078125 -14.46875 C 86.984375 -8.363281 81.03125 -3.617188 74.21875 -0.234375 C 67.414062 3.140625 60.285156 4.957031 52.828125 5.21875 C 45.378906 5.488281 38.144531 4.039062 31.125 0.875 C 24.101562 -2.28125 17.910156 -7.289062 12.546875 -14.15625 C 9.328125 -18.332031 6.910156 -23.691406 5.296875 -30.234375 C 3.691406 -36.773438 2.726562 -43.90625 2.40625 -51.625 C 2.09375 -59.351562 2.3125 -67.128906 3.0625 -74.953125 C 3.8125 -82.773438 4.9375 -90.195312 6.4375 -97.21875 C 7.9375 -104.25 9.648438 -110.234375 11.578125 -115.171875 C 12.441406 -117.304688 14.265625 -118.910156 17.046875 -119.984375 C 19.835938 -121.054688 23.03125 -121.59375 26.625 -121.59375 C 30.21875 -121.59375 33.644531 -121.164062 36.90625 -120.3125 C 40.175781 -119.457031 42.773438 -118.195312 44.703125 -116.53125 C 46.640625 -114.863281 47.34375 -112.851562 46.8125 -110.5 C 45.519531 -104.925781 44.066406 -99.21875 42.453125 -93.375 C 40.847656 -87.53125 39.75 -81.6875 39.15625 -75.84375 C 38.570312 -70 39.03125 -64.285156 40.53125 -58.703125 C 41.5 -55.378906 43.296875 -52.832031 45.921875 -51.0625 C 48.546875 -49.289062 51.382812 -48.566406 54.4375 -48.890625 C 57.5 -49.210938 59.992188 -50.769531 61.921875 -53.5625 C 64.171875 -56.78125 65.5625 -60.90625 66.09375 -65.9375 C 66.632812 -70.976562 66.632812 -76.394531 66.09375 -82.1875 C 65.5625 -87.976562 64.757812 -93.523438 63.6875 -98.828125 C 62.613281 -104.140625 61.546875 -108.617188 60.484375 -112.265625 C 59.941406 -113.984375 60.582031 -115.695312 62.40625 -117.40625 C 64.226562 -119.125 66.691406 -120.597656 69.796875 -121.828125 C 72.910156 -123.066406 76.179688 -123.898438 79.609375 -124.328125 C 83.046875 -124.753906 86.1875 -124.59375 89.03125 -123.84375 C 91.875 -123.09375 93.828125 -121.59375 94.890625 -119.34375 C 96.503906 -116.019531 97.953125 -111.675781 99.234375 -106.3125 C 100.523438 -100.957031 101.625 -95.085938 102.53125 -88.703125 C 103.445312 -82.328125 104.09375 -75.867188 104.46875 -69.328125 C 104.84375 -62.785156 104.921875 -56.644531 104.703125 -50.90625 C 104.492188 -45.164062 103.90625 -40.367188 102.9375 -36.515625 Z M 102.9375 -36.515625 "/></g></g></g><g fill="#004aad" fill-opacity="1"><g transform="translate(352.809134, 160.610362)"><g/></g></g><g fill="#004aad" fill-opacity="1"><g transform="translate(393.018272, 160.610362)"><g><path d="M 84.125 -3.21875 C 79.1875 -0.101562 73.207031 2.066406 66.1875 3.296875 C 59.164062 4.523438 51.847656 4.867188 44.234375 4.328125 C 36.617188 3.796875 29.351562 2.484375 22.4375 0.390625 C 15.519531 -1.691406 9.703125 -4.445312 4.984375 -7.875 C 2.835938 -9.382812 1.523438 -11.769531 1.046875 -15.03125 C 0.566406 -18.300781 0.726562 -21.894531 1.53125 -25.8125 C 2.332031 -29.726562 3.535156 -33.398438 5.140625 -36.828125 C 6.753906 -40.265625 8.660156 -42.972656 10.859375 -44.953125 C 13.054688 -46.941406 15.28125 -47.613281 17.53125 -46.96875 C 20.644531 -45.789062 23.863281 -44.367188 27.1875 -42.703125 C 30.507812 -41.046875 33.644531 -39.597656 36.59375 -38.359375 C 39.539062 -37.128906 41.953125 -36.539062 43.828125 -36.59375 C 45.703125 -36.644531 46.75 -37.796875 46.96875 -40.046875 C 47.175781 -41.546875 46.367188 -42.9375 44.546875 -44.21875 C 42.722656 -45.507812 40.390625 -46.769531 37.546875 -48 C 34.710938 -49.238281 31.6875 -50.609375 28.46875 -52.109375 C 25.25 -53.609375 22.300781 -55.378906 19.625 -57.421875 C 13.726562 -61.816406 9.785156 -66.988281 7.796875 -72.9375 C 5.816406 -78.894531 5.492188 -84.984375 6.828125 -91.203125 C 8.171875 -97.421875 10.988281 -103.128906 15.28125 -108.328125 C 19.570312 -113.523438 25.09375 -117.570312 31.84375 -120.46875 C 38.8125 -123.46875 45.859375 -124.96875 52.984375 -124.96875 C 60.117188 -124.96875 66.929688 -123.628906 73.421875 -120.953125 C 79.910156 -118.273438 85.539062 -114.414062 90.3125 -109.375 C 95.082031 -104.332031 98.488281 -98.164062 100.53125 -90.875 C 101.0625 -89.050781 100.363281 -87.015625 98.4375 -84.765625 C 96.507812 -82.515625 94.015625 -80.289062 90.953125 -78.09375 C 87.898438 -75.894531 84.867188 -73.9375 81.859375 -72.21875 C 78.859375 -70.5 76.609375 -69.210938 75.109375 -68.359375 C 74.359375 -67.929688 73.363281 -67.582031 72.125 -67.3125 C 70.894531 -67.039062 69.53125 -67.816406 68.03125 -69.640625 C 66.644531 -71.578125 65.332031 -73.671875 64.09375 -75.921875 C 62.863281 -78.171875 61.441406 -80.125 59.828125 -81.78125 C 58.222656 -83.445312 56.238281 -84.28125 53.875 -84.28125 C 49.914062 -84.382812 47.828125 -83.203125 47.609375 -80.734375 C 47.390625 -78.273438 48.945312 -75.921875 52.28125 -73.671875 C 56.03125 -71.097656 59.96875 -69.003906 64.09375 -67.390625 C 68.21875 -65.785156 72.398438 -63.9375 76.640625 -61.84375 C 80.878906 -59.75 85.035156 -56.664062 89.109375 -52.59375 C 92.429688 -49.269531 94.789062 -45.300781 96.1875 -40.6875 C 97.582031 -36.082031 98.0625 -31.363281 97.625 -26.53125 C 97.195312 -21.707031 95.859375 -17.234375 93.609375 -13.109375 C 91.359375 -8.984375 88.195312 -5.6875 84.125 -3.21875 Z M 84.125 -3.21875 "/></g></g></g><g fill="#004aad" fill-opacity="1"><g transform="translate(494.506114, 160.610362)"><g><path d="M 46.15625 4.671875 C 43.375 4.773438 40.585938 4.878906 37.796875 4.984375 C 35.003906 5.085938 32.21875 5.140625 29.4375 5.140625 C 28.039062 5.035156 26.59375 4.847656 25.09375 4.578125 C 23.59375 4.316406 22.359375 3.753906 21.390625 2.890625 C 20.640625 2.140625 20.15625 0.882812 19.9375 -0.875 C 19.726562 -2.644531 19.625 -4.46875 19.625 -6.34375 C 19.625 -8.226562 19.625 -9.707031 19.625 -10.78125 C 19.832031 -23 20.421875 -35.273438 21.390625 -47.609375 C 22.359375 -59.941406 24.179688 -72.113281 26.859375 -84.125 C 26.960938 -84.445312 27.066406 -84.953125 27.171875 -85.640625 C 27.285156 -86.335938 27.394531 -87.066406 27.5 -87.828125 C 24.5 -87.179688 21.523438 -86.453125 18.578125 -85.640625 C 15.628906 -84.835938 12.65625 -84.0625 9.65625 -83.3125 C 8.90625 -83.101562 8.097656 -82.890625 7.234375 -82.671875 C 6.378906 -82.460938 5.523438 -82.359375 4.671875 -82.359375 C 3.910156 -82.460938 3.207031 -82.863281 2.5625 -83.5625 C 1.925781 -84.257812 1.609375 -84.984375 1.609375 -85.734375 C 1.503906 -88.191406 1.367188 -90.628906 1.203125 -93.046875 C 1.046875 -95.460938 0.859375 -97.847656 0.640625 -100.203125 C 0.535156 -101.597656 0.398438 -103.472656 0.234375 -105.828125 C 0.078125 -108.191406 0.0507812 -110.5 0.15625 -112.75 C 0.269531 -115 0.753906 -116.609375 1.609375 -117.578125 C 2.359375 -118.429688 3.242188 -119.097656 4.265625 -119.578125 C 5.285156 -120.066406 6.332031 -120.421875 7.40625 -120.640625 C 9.976562 -121.390625 12.550781 -122.03125 15.125 -122.5625 C 17.695312 -123.101562 20.210938 -123.585938 22.671875 -124.015625 C 27.285156 -124.867188 31.925781 -125.375 36.59375 -125.53125 C 41.257812 -125.695312 45.894531 -125.78125 50.5 -125.78125 C 53.613281 -125.78125 56.773438 -125.671875 59.984375 -125.453125 C 63.203125 -125.242188 66.367188 -124.976562 69.484375 -124.65625 C 72.597656 -124.332031 75.785156 -123.984375 79.046875 -123.609375 C 82.316406 -123.234375 85.507812 -122.617188 88.625 -121.765625 C 89.269531 -121.648438 89.941406 -121.40625 90.640625 -121.03125 C 91.335938 -120.65625 91.898438 -120.203125 92.328125 -119.671875 C 93.078125 -118.804688 93.367188 -117.273438 93.203125 -115.078125 C 93.046875 -112.878906 92.859375 -111.191406 92.640625 -110.015625 C 92.316406 -107.984375 91.96875 -105.972656 91.59375 -103.984375 C 91.21875 -102.003906 90.816406 -99.992188 90.390625 -97.953125 C 90.179688 -96.984375 90.046875 -95.960938 89.984375 -94.890625 C 89.929688 -93.828125 89.742188 -92.8125 89.421875 -91.84375 C 89.210938 -91.09375 88.8125 -90.421875 88.21875 -89.828125 C 87.632812 -89.242188 86.910156 -88.84375 86.046875 -88.625 C 85.410156 -88.519531 84.769531 -88.46875 84.125 -88.46875 C 83.476562 -88.46875 82.832031 -88.519531 82.1875 -88.625 C 79.507812 -88.945312 76.851562 -89.347656 74.21875 -89.828125 C 71.59375 -90.316406 68.890625 -90.71875 66.109375 -91.03125 C 65.890625 -91.03125 65.539062 -91.03125 65.0625 -91.03125 C 64.582031 -91.03125 64.019531 -91.03125 63.375 -91.03125 C 62.945312 -86.75 62.757812 -82.460938 62.8125 -78.171875 C 62.863281 -73.878906 62.941406 -69.585938 63.046875 -65.296875 C 63.265625 -56.503906 63.691406 -47.765625 64.328125 -39.078125 C 64.972656 -30.398438 65.941406 -21.71875 67.234375 -13.03125 C 67.441406 -11.632812 67.65625 -10.210938 67.875 -8.765625 C 68.09375 -7.316406 68.203125 -5.84375 68.203125 -4.34375 C 68.304688 -3.375 68.300781 -2.429688 68.1875 -1.515625 C 68.082031 -0.609375 67.765625 0.269531 67.234375 1.125 C 66.484375 2.195312 65.195312 3 63.375 3.53125 C 60.6875 4.289062 57.867188 4.671875 54.921875 4.671875 C 51.972656 4.671875 49.050781 4.671875 46.15625 4.671875 Z M 46.15625 4.671875 "/></g></g></g><g fill="#004aad" fill-opacity="1"><g transform="translate(584.574476, 160.610362)"><g><path d="M 102.78125 -36.515625 C 100.632812 -27.929688 97.015625 -20.582031 91.921875 -14.46875 C 86.828125 -8.363281 80.875 -3.617188 74.0625 -0.234375 C 67.257812 3.140625 60.128906 4.957031 52.671875 5.21875 C 45.222656 5.488281 37.984375 4.039062 30.953125 0.875 C 23.929688 -2.28125 17.742188 -7.289062 12.390625 -14.15625 C 9.171875 -18.332031 6.753906 -23.691406 5.140625 -30.234375 C 3.535156 -36.773438 2.570312 -43.90625 2.25 -51.625 C 1.925781 -59.351562 2.140625 -67.128906 2.890625 -74.953125 C 3.640625 -82.773438 4.765625 -90.195312 6.265625 -97.21875 C 7.773438 -104.25 9.492188 -110.234375 11.421875 -115.171875 C 12.273438 -117.304688 14.097656 -118.910156 16.890625 -119.984375 C 19.679688 -121.054688 22.867188 -121.59375 26.453125 -121.59375 C 30.046875 -121.59375 33.476562 -121.164062 36.75 -120.3125 C 40.019531 -119.457031 42.617188 -118.195312 44.546875 -116.53125 C 46.484375 -114.863281 47.179688 -112.851562 46.640625 -110.5 C 45.359375 -104.925781 43.910156 -99.21875 42.296875 -93.375 C 40.691406 -87.53125 39.59375 -81.6875 39 -75.84375 C 38.414062 -70 38.875 -64.285156 40.375 -58.703125 C 41.332031 -55.378906 43.125 -52.832031 45.75 -51.0625 C 48.382812 -49.289062 51.226562 -48.566406 54.28125 -48.890625 C 57.34375 -49.210938 59.835938 -50.769531 61.765625 -53.5625 C 64.015625 -56.78125 65.40625 -60.90625 65.9375 -65.9375 C 66.476562 -70.976562 66.476562 -76.394531 65.9375 -82.1875 C 65.40625 -87.976562 64.601562 -93.523438 63.53125 -98.828125 C 62.457031 -104.140625 61.382812 -108.617188 60.3125 -112.265625 C 59.78125 -113.984375 60.425781 -115.695312 62.25 -117.40625 C 64.070312 -119.125 66.535156 -120.597656 69.640625 -121.828125 C 72.753906 -123.066406 76.023438 -123.898438 79.453125 -124.328125 C 82.890625 -124.753906 86.023438 -124.59375 88.859375 -123.84375 C 91.703125 -123.09375 93.660156 -121.59375 94.734375 -119.34375 C 96.347656 -116.019531 97.796875 -111.675781 99.078125 -106.3125 C 100.367188 -100.957031 101.46875 -95.085938 102.375 -88.703125 C 103.289062 -82.328125 103.9375 -75.867188 104.3125 -69.328125 C 104.6875 -62.785156 104.765625 -56.644531 104.546875 -50.90625 C 104.335938 -45.164062 103.75 -40.367188 102.78125 -36.515625 Z M 102.78125 -36.515625 "/></g></g></g><g fill="#004aad" fill-opacity="1"><g transform="translate(691.209073, 160.610362)"><g><path d="M 54.84375 -0.328125 C 48.625 0.742188 42.296875 1.628906 35.859375 2.328125 C 29.429688 3.023438 23.109375 2.785156 16.890625 1.609375 C 15.597656 1.503906 14.414062 0.96875 13.34375 0 C 12.164062 0 11.523438 -0.664062 11.421875 -2 C 11.316406 -3.34375 11.207031 -4.550781 11.09375 -5.625 C 10.882812 -10.019531 10.59375 -14.414062 10.21875 -18.8125 C 9.84375 -23.207031 9.492188 -27.550781 9.171875 -31.84375 C 8.742188 -37.851562 8.3125 -43.910156 7.875 -50.015625 C 7.445312 -56.128906 6.859375 -62.191406 6.109375 -68.203125 C 5.679688 -72.484375 5.144531 -76.742188 4.5 -80.984375 C 3.851562 -85.222656 3.316406 -89.484375 2.890625 -93.765625 C 2.566406 -96.660156 2.242188 -99.554688 1.921875 -102.453125 C 1.609375 -105.347656 1.394531 -108.296875 1.28125 -111.296875 C 1.28125 -112.484375 1.304688 -113.691406 1.359375 -114.921875 C 1.421875 -116.148438 1.769531 -117.300781 2.40625 -118.375 C 2.945312 -119.238281 3.722656 -119.910156 4.734375 -120.390625 C 5.753906 -120.867188 6.800781 -121.269531 7.875 -121.59375 C 11.3125 -122.78125 14.796875 -123.75 18.328125 -124.5 C 21.867188 -125.25 25.460938 -125.785156 29.109375 -126.109375 C 39.941406 -126.960938 50.71875 -125.890625 61.4375 -122.890625 C 65.832031 -121.703125 70.175781 -120.007812 74.46875 -117.8125 C 78.757812 -115.613281 82.457031 -112.851562 85.5625 -109.53125 C 87.5 -107.5 89.242188 -105.25 90.796875 -102.78125 C 92.347656 -100.3125 93.769531 -97.84375 95.0625 -95.375 C 97.3125 -91.09375 99.050781 -86.535156 100.28125 -81.703125 C 101.519531 -76.878906 102.351562 -72.003906 102.78125 -67.078125 C 102.988281 -64.285156 103.117188 -61.441406 103.171875 -58.546875 C 103.234375 -55.648438 102.992188 -52.804688 102.453125 -50.015625 C 102.023438 -47.554688 101.488281 -45.09375 100.84375 -42.625 C 100.207031 -40.15625 99.242188 -37.796875 97.953125 -35.546875 C 96.671875 -33.191406 95.304688 -30.804688 93.859375 -28.390625 C 92.410156 -25.972656 90.878906 -23.640625 89.265625 -21.390625 C 87.984375 -19.671875 86.507812 -18.085938 84.84375 -16.640625 C 83.1875 -15.191406 81.445312 -13.828125 79.625 -12.546875 C 75.863281 -9.867188 71.921875 -7.347656 67.796875 -4.984375 C 63.671875 -2.628906 59.351562 -1.078125 54.84375 -0.328125 Z M 39.734375 -79.140625 C 40.265625 -72.921875 40.632812 -66.695312 40.84375 -60.46875 C 41.0625 -54.25 41.332031 -48.03125 41.65625 -41.8125 C 42.082031 -41.8125 42.457031 -41.8125 42.78125 -41.8125 C 43.101562 -41.8125 43.476562 -41.8125 43.90625 -41.8125 C 47.664062 -41.707031 50.800781 -42.644531 53.3125 -44.625 C 55.832031 -46.613281 58.164062 -49.054688 60.3125 -51.953125 C 61.175781 -53.128906 61.820312 -54.441406 62.25 -55.890625 C 62.675781 -57.335938 63 -58.757812 63.21875 -60.15625 C 63.96875 -65.082031 63.859375 -70.175781 62.890625 -75.4375 C 62.460938 -77.363281 61.84375 -79.265625 61.03125 -81.140625 C 60.226562 -83.015625 59.078125 -84.648438 57.578125 -86.046875 C 56.617188 -87.117188 55.46875 -88.003906 54.125 -88.703125 C 52.78125 -89.398438 51.410156 -89.960938 50.015625 -90.390625 C 47.660156 -91.140625 45.757812 -91.515625 44.3125 -91.515625 C 42.863281 -91.515625 40.960938 -91.25 38.609375 -90.71875 C 38.816406 -88.789062 39.023438 -86.859375 39.234375 -84.921875 C 39.453125 -82.992188 39.617188 -81.066406 39.734375 -79.140625 Z M 39.734375 -79.140625 "/></g></g></g><g fill="#004aad" fill-opacity="1"><g transform="translate(794.305244, 160.610362)"><g><path d="M 47.125 1.609375 C 45.300781 1.710938 43.179688 1.765625 40.765625 1.765625 C 38.359375 1.765625 36.242188 1.710938 34.421875 1.609375 C 30.453125 1.503906 26.457031 1.394531 22.4375 1.28125 C 18.414062 1.175781 14.367188 1.070312 10.296875 0.96875 C 9.328125 0.851562 8.382812 0.796875 7.46875 0.796875 C 6.5625 0.796875 5.628906 0.742188 4.671875 0.640625 C 3.160156 0.316406 2.269531 -0.507812 2 -1.84375 C 1.738281 -3.1875 1.796875 -4.742188 2.171875 -6.515625 C 2.546875 -8.285156 2.894531 -9.921875 3.21875 -11.421875 C 4.71875 -18.285156 5.789062 -25.679688 6.4375 -33.609375 C 7.082031 -41.546875 7.40625 -49.613281 7.40625 -57.8125 C 7.40625 -66.019531 7.160156 -73.847656 6.671875 -81.296875 C 6.191406 -88.753906 5.601562 -95.40625 4.90625 -101.25 C 4.207031 -107.09375 3.484375 -111.675781 2.734375 -115 C 2.203125 -117.570312 2.125 -119.34375 2.5 -120.3125 C 2.875 -121.28125 3.625 -121.867188 4.75 -122.078125 C 5.875 -122.296875 7.238281 -122.457031 8.84375 -122.5625 C 15.925781 -123.101562 23.21875 -123.585938 30.71875 -124.015625 C 38.226562 -124.441406 45.679688 -124.601562 53.078125 -124.5 C 55.546875 -124.382812 56.96875 -123.898438 57.34375 -123.046875 C 57.71875 -122.191406 57.421875 -120.367188 56.453125 -117.578125 C 53.878906 -110.390625 51.894531 -102.5625 50.5 -94.09375 C 49.101562 -85.625 48.191406 -77.019531 47.765625 -68.28125 C 47.335938 -59.539062 47.203125 -51.117188 47.359375 -43.015625 C 47.523438 -34.921875 47.898438 -27.578125 48.484375 -20.984375 C 49.078125 -14.390625 49.75 -9.003906 50.5 -4.828125 C 50.820312 -3.210938 50.796875 -1.757812 50.421875 -0.46875 C 50.046875 0.8125 48.945312 1.503906 47.125 1.609375 Z M 47.125 1.609375 "/></g></g></g><g fill="#004aad" fill-opacity="1"><g transform="translate(847.381154, 160.610362)"><g><path d="M 97.625 -30.875 C 94.519531 -24.019531 90.363281 -18.285156 85.15625 -13.671875 C 79.957031 -9.054688 74.222656 -5.566406 67.953125 -3.203125 C 61.679688 -0.847656 55.300781 0.351562 48.8125 0.40625 C 42.320312 0.457031 36.101562 -0.585938 30.15625 -2.734375 C 24.207031 -4.878906 18.976562 -8.175781 14.46875 -12.625 C 9.96875 -17.070312 6.59375 -22.625 4.34375 -29.28125 C 2.09375 -36.03125 1.019531 -43.476562 1.125 -51.625 C 1.226562 -59.78125 2.378906 -67.90625 4.578125 -76 C 6.773438 -84.09375 9.960938 -91.515625 14.140625 -98.265625 C 18.328125 -105.023438 23.375 -110.335938 29.28125 -114.203125 C 39.144531 -120.523438 48.3125 -124.300781 56.78125 -125.53125 C 65.25 -126.769531 72.804688 -125.96875 79.453125 -123.125 C 86.097656 -120.28125 91.644531 -115.828125 96.09375 -109.765625 C 100.550781 -103.710938 103.71875 -96.503906 105.59375 -88.140625 C 107.46875 -79.773438 107.785156 -70.710938 106.546875 -60.953125 C 105.316406 -51.203125 102.34375 -41.175781 97.625 -30.875 Z M 47.28125 -80.578125 C 42.132812 -73.609375 38.972656 -67.253906 37.796875 -61.515625 C 36.617188 -55.785156 36.832031 -51.097656 38.4375 -47.453125 C 40.050781 -43.804688 42.492188 -41.550781 45.765625 -40.6875 C 49.035156 -39.832031 52.625 -40.691406 56.53125 -43.265625 C 60.445312 -45.835938 64.066406 -50.554688 67.390625 -57.421875 C 70.078125 -62.890625 71.550781 -67.765625 71.8125 -72.046875 C 72.082031 -76.335938 71.492188 -79.878906 70.046875 -82.671875 C 68.597656 -85.460938 66.613281 -87.335938 64.09375 -88.296875 C 61.570312 -89.265625 58.835938 -89.160156 55.890625 -87.984375 C 52.941406 -86.804688 50.070312 -84.335938 47.28125 -80.578125 Z M 47.28125 -80.578125 "/></g></g></g></g></g></g></g></g></g></svg>